PathFileType	4	(X/Y/Z)	Patient4_TMGait_0pt8_01_right_25.trc.trc
DataRate	CameraRate	NumFrames	NumMarkers	Units	OrigDataRate	OrigDataStartFrame	OrigNumFrames
89.743589743590	89.743589743590	4	33	mm	89.743589743590	1	       141
Frame#	Time	Sacral			L.Shoulder			Chest			R.Shoulder			Neck			R.ASIS			L.ASIS			R.Thigh.Superior			R.Thigh.Lateral			R.Thigh.Inferior			R.Patella			L.Thigh.Superior			L.Thigh.Lateral			L.Thigh.Inferior			L.Patella			L.Shank.Superior			L.Shank.Lateral			L.Shank.Inferior			R.Shank.Superior			R.Shank.Lateral			R.Shank.Inferior			R.Heel			R.Midfoot.Superior			R.Midfoot.Lateral			R.Toe			L.Heel			L.Midfoot.Lateral			L.Midfoot.Superior			L.Toe			L.Elbow			L.Wrist			R.Elbow			R.Wrist			
		X1	Y1	Z1	X2	Y2	Z2	X3	Y3	Z3	X4	Y4	Z4	X5	Y5	Z5	X6	Y6	Z6	X7	Y7	Z7	X8	Y8	Z8	X9	Y9	Z9	X10	Y10	Z10	X11	Y11	Z11	X12	Y12	Z12	X13	Y13	Z13	X14	Y14	Z14	X15	Y15	Z15	X16	Y16	Z16	X17	Y17	Z17	X18	Y18	Z18	X19	Y19	Z19	X20	Y20	Z20	X21	Y21	Z21	X22	Y22	Z22	X23	Y23	Z23	X24	Y24	Z24	X25	Y25	Z25	X26	Y26	Z26	X27	Y27	Z27	X28	Y28	Z28	X29	Y29	Z29	X30	Y30	Z30	X31	Y31	Z31	X32	Y32	Z32	X33	Y33	Z33	

1	27.950000000000	892.994200988157	1013.080830304023	427.760499808508	1066.111874930989	1444.555607445311	258.631722851769	1166.282051421824	1377.214945879975	421.981274625383	1075.457095369388	1444.213067152861	595.430053008607	1042.592921831995	1502.845430783887	415.730051574861	1119.238280646591	953.847649355146	550.851301341127	1109.601079630882	970.121649721264	276.302144737424	1201.510468606791	783.662804880055	525.418611602692	1161.938923684151	662.735718959175	601.417050675204	1254.684127971712	623.222303265297	526.173459677505	1274.092762861097	510.645354815647	551.486107681053	1146.527235931321	750.332869141585	304.621392405289	1044.132896084231	638.705257548294	253.393345590547	1125.388707794999	557.016334869295	314.276412316982	1121.637431332460	490.247701311009	327.006740968689	1096.965412489095	419.639116610008	323.330353106631	1006.014333161214	301.813713670552	282.866290308222	1064.031563484148	194.888079325443	356.529346322893	1199.946681494066	434.011885260975	556.398676100971	1078.025738830010	391.833892934956	614.579604690849	1067.812404782719	281.874915079828	565.821862294802	869.646522722448	214.291578304855	534.721522436272	1038.109049380937	158.247657797561	574.295461815802	928.501888581621	153.272605263957	607.132772653140	1106.621234149591	48.251634897568	599.979235927575	941.459848337286	39.141806578510	415.389021284968	1009.928180288527	36.011712483828	329.881830907070	1094.697351803551	96.717426379368	350.521302965628	1221.016003773450	44.950200840056	314.734310950877	1119.299895448786	1104.007447918758	120.240101390466	1249.091514945995	878.339471825302	111.410481810451	1024.725075187779	1094.830261242065	700.456171993189	1195.219221059486	898.045742723079	700.841266619625	
2	27.961142857143	891.645826798603	1012.809735849056	426.901716809776	1066.700429625070	1444.680639022034	258.190325617184	1165.663331330992	1376.846672526282	422.028248207690	1073.811373652226	1443.736413594477	594.974861802896	1042.089021016433	1502.641691186467	415.206628860776	1117.139830718136	953.532334334361	550.064816739227	1108.623202547008	969.897636660563	275.848072180476	1201.477487542582	785.817632423759	524.499544721370	1164.406578829902	664.596331852393	601.040140130935	1256.578666716334	626.017656285489	524.845171069547	1278.509036529416	514.981552534117	550.454259068667	1142.844496323819	749.245452244512	304.753431975136	1039.503035282657	638.614388745778	252.888494658231	1119.479334650016	556.084855239764	313.881756353931	1114.806735708986	489.387554331985	326.675695117846	1089.863221583856	419.119702666459	322.995463471364	998.092769388979	301.878927153642	282.510246854311	1055.382926320475	194.617613920584	356.269272011609	1207.683552662310	436.200970319019	555.920602358716	1088.917477214245	388.007232671769	614.702483253600	1084.094382373227	277.935099780890	566.031335351100	890.068179300592	200.539652875576	535.982137230889	1061.157858464292	154.201826014744	576.133441370290	952.062896817209	143.115964377863	608.418780427701	1134.483556998614	47.261432133363	600.727353068157	932.050668664296	39.220371528896	415.354930256298	1000.560231210241	35.996905229019	329.853439541105	1085.379519359842	96.639321555520	350.475418989296	1211.678209050180	44.799318620845	314.703749795946	1128.257007796287	1107.583035831628	117.650548707180	1268.991486150819	889.321239900059	109.828945443395	1017.296703627655	1094.711452859268	698.277424343926	1167.687823578149	885.669880777353	702.819489929648	
3	27.972285714286	890.319795809231	1012.529596829352	426.064453705738	1067.297944446924	1444.783115029996	257.779413662251	1165.073864785744	1376.456653114979	422.092638487828	1072.223606883099	1443.240826996241	594.549460911439	1041.617297421157	1502.420998618698	414.711784319319	1115.108077445763	953.214201257748	549.321068325564	1107.657422026004	969.656670044695	275.406317870955	1201.395419696957	787.867049000922	523.599838669674	1166.726177025615	666.358212512108	600.649036869221	1258.319759705413	628.672030965100	523.532032336470	1282.706711586555	519.196670907568	549.416448761072	1139.245146509034	748.159363104720	304.866448968270	1034.942468816671	638.520492779507	252.400056896674	1113.657393598498	555.159664012200	313.499190465902	1108.085182858384	488.543446967346	326.347838339882	1082.864136681056	418.605057552986	322.669096430050	990.282814344094	301.943341022878	282.165335194969	1046.845111570157	194.350085154104	356.019657903429	1215.225864343901	438.314868805483	555.426841119483	1099.710752068046	384.156712034628	614.871173677717	1100.250612129173	274.019662726452	566.259260555507	910.451492951324	186.883930848413	537.308982623189	1084.055730357414	150.147450864910	577.873835598878	975.556191229914	133.085911850323	609.755099534117	1162.179686251948	46.372286588334	601.483406817427	922.770393744900	39.295612647645	415.317925254815	991.313695226028	35.981918719339	329.825272959367	1076.182922520898	96.561675373167	350.431276006613	1202.461678419057	44.648181125952	314.674145520060	1136.946388985883	1111.092793114470	115.106920981768	1288.495456327649	900.283553759979	108.333247043667	1009.968225715133	1094.600350822755	696.134179806828	1140.449043132100	873.878786628058	704.742943790657	
4	27.983428571429	889.038989441127	1012.225973807321	425.265548991901	1067.925793435219	1444.829521850082	257.437095592604	1164.547182615577	1376.009214240011	422.202674196714	1070.751354819812	1442.698325402215	594.189369437980	1041.213747258036	1502.155024935309	414.278642637450	1113.196091409599	952.870102006604	548.667543770253	1106.721745539883	969.373790180786	274.998519421477	1201.181526180445	789.670449700482	522.752537857604	1168.704387802567	667.892541747754	600.254419368988	1259.718665584228	631.015661391830	522.272068811586	1286.440205886170	523.166633464273	548.378229640435	1135.771953194712	747.061811306082	304.943442828410	1030.460918224895	638.421690446201	251.942646165068	1107.932639905021	554.238251262130	313.140062341100	1101.493687779522	487.720999024477	326.024320919470	1075.975962190005	418.098409167557	322.356731634289	982.591801921766	302.012680949821	281.840352635346	1038.422175559710	194.089835344438	355.786459093023	1222.401151554847	440.290376359397	554.918158689804	1110.385421112600	380.231812922112	615.119624573944	1116.305843363355	270.175291154082	566.518556870914	931.042055590289	173.373604258333	538.723516833473	1106.893801731748	146.146967598128	579.431364228158	999.187632206036	123.303444166676	611.155172279223	1189.799412065007	45.815825602200	602.251927450463	913.630125870309	39.368319362940	415.274019834123	982.194523312704	35.966795542908	329.797269976597	1067.114223475960	96.485429992246	350.388475521243	1193.371459445732	44.495695484874	314.646360278478	1145.147731352292	1114.479153687573	112.642206883625	1307.309004786236	911.361474439974	107.027711063937	1002.734129313296	1094.551392954509	694.071326447450	1113.608834307126	863.260177068059	706.569231167379	
